<mxfile host="app.diagrams.net" agent="Mozilla/5.0 (Macintosh; Intel Mac OS X 10_15_7) AppleWebKit/537.36 (KHTML, like Gecko) Chrome/132.0.0.0 Safari/537.36" version="26.0.11">
  <diagram name="Page-1" id="LubBqCAFF0eY_6Dfj3jN">
    <mxGraphModel dx="1493" dy="799" grid="1" gridSize="10" guides="1" tooltips="1" connect="1" arrows="1" fold="1" page="1" pageScale="1" pageWidth="850" pageHeight="1100" math="0" shadow="0">
      <root>
        <mxCell id="0" />
        <mxCell id="1" parent="0" />
        <mxCell id="bE1gFKcx4u8gwo7U3hTT-1" value="" style="whiteSpace=wrap;html=1;aspect=fixed;" parent="1" vertex="1">
          <mxGeometry y="20" width="990" height="990" as="geometry" />
        </mxCell>
        <mxCell id="hrwhk7hBxuppIEL_lkO9-1" value="Utilisateur" style="shape=umlActor;verticalLabelPosition=bottom;verticalAlign=top;html=1;outlineConnect=0;" parent="1" vertex="1">
          <mxGeometry x="30" y="400" width="30" height="60" as="geometry" />
        </mxCell>
        <mxCell id="bE1gFKcx4u8gwo7U3hTT-4" value="" style="rounded=0;whiteSpace=wrap;html=1;" parent="1" vertex="1">
          <mxGeometry x="160" y="160" width="510" height="780" as="geometry" />
        </mxCell>
        <mxCell id="bE1gFKcx4u8gwo7U3hTT-5" value="PostgreSQL" style="shape=umlActor;verticalLabelPosition=bottom;verticalAlign=top;html=1;outlineConnect=0;" parent="1" vertex="1">
          <mxGeometry x="750" y="400" width="30" height="60" as="geometry" />
        </mxCell>
        <mxCell id="bE1gFKcx4u8gwo7U3hTT-11" style="edgeStyle=orthogonalEdgeStyle;rounded=0;orthogonalLoop=1;jettySize=auto;html=1;dashed=1;" parent="1" source="bE1gFKcx4u8gwo7U3hTT-6" target="bE1gFKcx4u8gwo7U3hTT-10" edge="1">
          <mxGeometry relative="1" as="geometry">
            <Array as="points">
              <mxPoint x="390" y="210" />
            </Array>
          </mxGeometry>
        </mxCell>
        <mxCell id="bE1gFKcx4u8gwo7U3hTT-12" value="&lt;font style=&quot;font-size: 16px;&quot;&gt;extends&lt;/font&gt;" style="edgeLabel;html=1;align=center;verticalAlign=middle;resizable=0;points=[];" parent="bE1gFKcx4u8gwo7U3hTT-11" vertex="1" connectable="0">
          <mxGeometry x="-0.55" y="1" relative="1" as="geometry">
            <mxPoint as="offset" />
          </mxGeometry>
        </mxCell>
        <mxCell id="bE1gFKcx4u8gwo7U3hTT-6" value="CU 1: Accéder aux paramètres de compte" style="ellipse;whiteSpace=wrap;html=1;" parent="1" vertex="1">
          <mxGeometry x="280" y="310" width="180" height="80" as="geometry" />
        </mxCell>
        <mxCell id="bE1gFKcx4u8gwo7U3hTT-8" value="CU 2: Réaliser un prélèvement" style="ellipse;whiteSpace=wrap;html=1;" parent="1" vertex="1">
          <mxGeometry x="280" y="440" width="180" height="80" as="geometry" />
        </mxCell>
        <mxCell id="bE1gFKcx4u8gwo7U3hTT-9" value="CU 3: Consulter les statistiques liées aux prélèvements" style="ellipse;whiteSpace=wrap;html=1;" parent="1" vertex="1">
          <mxGeometry x="280" y="540" width="180" height="80" as="geometry" />
        </mxCell>
        <mxCell id="bE1gFKcx4u8gwo7U3hTT-10" value="Créer un compte" style="ellipse;whiteSpace=wrap;html=1;" parent="1" vertex="1">
          <mxGeometry x="490" y="170" width="120" height="80" as="geometry" />
        </mxCell>
        <mxCell id="bE1gFKcx4u8gwo7U3hTT-16" style="edgeStyle=orthogonalEdgeStyle;rounded=0;orthogonalLoop=1;jettySize=auto;html=1;entryX=0;entryY=0.5;entryDx=0;entryDy=0;endArrow=none;startFill=0;" parent="1" source="hrwhk7hBxuppIEL_lkO9-1" target="bE1gFKcx4u8gwo7U3hTT-6" edge="1">
          <mxGeometry relative="1" as="geometry">
            <Array as="points">
              <mxPoint x="200" y="430" />
              <mxPoint x="200" y="350" />
            </Array>
          </mxGeometry>
        </mxCell>
        <mxCell id="bE1gFKcx4u8gwo7U3hTT-18" style="edgeStyle=orthogonalEdgeStyle;rounded=0;orthogonalLoop=1;jettySize=auto;html=1;endArrow=none;startFill=0;" parent="1" source="hrwhk7hBxuppIEL_lkO9-1" target="bE1gFKcx4u8gwo7U3hTT-8" edge="1">
          <mxGeometry relative="1" as="geometry">
            <Array as="points">
              <mxPoint x="200" y="430" />
              <mxPoint x="200" y="490" />
            </Array>
          </mxGeometry>
        </mxCell>
        <mxCell id="bE1gFKcx4u8gwo7U3hTT-19" style="edgeStyle=orthogonalEdgeStyle;rounded=0;orthogonalLoop=1;jettySize=auto;html=1;entryX=0;entryY=0.5;entryDx=0;entryDy=0;endArrow=none;startFill=0;" parent="1" source="hrwhk7hBxuppIEL_lkO9-1" target="bE1gFKcx4u8gwo7U3hTT-9" edge="1">
          <mxGeometry relative="1" as="geometry">
            <Array as="points">
              <mxPoint x="200" y="430" />
              <mxPoint x="200" y="580" />
            </Array>
          </mxGeometry>
        </mxCell>
        <mxCell id="bE1gFKcx4u8gwo7U3hTT-21" style="edgeStyle=orthogonalEdgeStyle;rounded=0;orthogonalLoop=1;jettySize=auto;html=1;entryX=0.5;entryY=0.5;entryDx=0;entryDy=0;entryPerimeter=0;endArrow=none;startFill=0;" parent="1" source="bE1gFKcx4u8gwo7U3hTT-8" target="bE1gFKcx4u8gwo7U3hTT-5" edge="1">
          <mxGeometry relative="1" as="geometry">
            <Array as="points">
              <mxPoint x="610" y="490" />
              <mxPoint x="610" y="430" />
            </Array>
          </mxGeometry>
        </mxCell>
        <mxCell id="bE1gFKcx4u8gwo7U3hTT-22" style="edgeStyle=orthogonalEdgeStyle;rounded=0;orthogonalLoop=1;jettySize=auto;html=1;entryX=0.5;entryY=0.5;entryDx=0;entryDy=0;entryPerimeter=0;endArrow=none;startFill=0;exitX=0.994;exitY=0.61;exitDx=0;exitDy=0;exitPerimeter=0;" parent="1" source="bE1gFKcx4u8gwo7U3hTT-9" target="bE1gFKcx4u8gwo7U3hTT-5" edge="1">
          <mxGeometry relative="1" as="geometry">
            <Array as="points">
              <mxPoint x="459" y="580" />
              <mxPoint x="610" y="580" />
              <mxPoint x="610" y="430" />
            </Array>
          </mxGeometry>
        </mxCell>
        <mxCell id="yzMuyjXtBNfQkwznEPzL-2" value="CU 6: Consulter le Tableau de bord" style="ellipse;whiteSpace=wrap;html=1;" parent="1" vertex="1">
          <mxGeometry x="290" y="830" width="160" height="80" as="geometry" />
        </mxCell>
        <mxCell id="yzMuyjXtBNfQkwznEPzL-3" value="Administrateur&amp;nbsp;&lt;br&gt;sur le site Web" style="shape=umlActor;verticalLabelPosition=bottom;verticalAlign=top;html=1;outlineConnect=0;" parent="1" vertex="1">
          <mxGeometry x="30" y="500" width="30" height="60" as="geometry" />
        </mxCell>
        <mxCell id="yzMuyjXtBNfQkwznEPzL-5" style="edgeStyle=orthogonalEdgeStyle;rounded=0;orthogonalLoop=1;jettySize=auto;html=1;entryX=0;entryY=0.5;entryDx=0;entryDy=0;endArrow=none;startFill=0;exitX=0.5;exitY=0.5;exitDx=0;exitDy=0;exitPerimeter=0;" parent="1" source="yzMuyjXtBNfQkwznEPzL-3" target="yzMuyjXtBNfQkwznEPzL-2" edge="1">
          <mxGeometry relative="1" as="geometry">
            <mxPoint x="109.5" y="530" as="sourcePoint" />
            <mxPoint x="280" y="750.0000000000002" as="targetPoint" />
            <Array as="points">
              <mxPoint x="120" y="531" />
              <mxPoint x="120" y="870" />
            </Array>
          </mxGeometry>
        </mxCell>
        <mxCell id="yzMuyjXtBNfQkwznEPzL-10" style="edgeStyle=orthogonalEdgeStyle;rounded=0;orthogonalLoop=1;jettySize=auto;html=1;endArrow=none;startFill=0;exitX=0.5;exitY=0.5;exitDx=0;exitDy=0;exitPerimeter=0;entryX=0;entryY=0.5;entryDx=0;entryDy=0;" parent="1" target="bE1gFKcx4u8gwo7U3hTT-9" edge="1">
          <mxGeometry relative="1" as="geometry">
            <mxPoint x="60" y="530" as="sourcePoint" />
            <mxPoint x="305" y="760" as="targetPoint" />
            <Array as="points">
              <mxPoint x="60" y="531" />
              <mxPoint x="200" y="531" />
              <mxPoint x="200" y="580" />
            </Array>
          </mxGeometry>
        </mxCell>
        <mxCell id="yzMuyjXtBNfQkwznEPzL-11" style="edgeStyle=orthogonalEdgeStyle;rounded=0;orthogonalLoop=1;jettySize=auto;html=1;entryX=0.5;entryY=0.5;entryDx=0;entryDy=0;entryPerimeter=0;endArrow=none;startFill=0;" parent="1" source="yzMuyjXtBNfQkwznEPzL-2" edge="1">
          <mxGeometry relative="1" as="geometry">
            <Array as="points">
              <mxPoint x="610" y="870" />
              <mxPoint x="610" y="430" />
            </Array>
            <mxPoint x="460" y="630" as="sourcePoint" />
            <mxPoint x="765" y="430" as="targetPoint" />
          </mxGeometry>
        </mxCell>
        <mxCell id="yzMuyjXtBNfQkwznEPzL-12" value="CU 4: Partager une rétroaction et ses résultats" style="ellipse;whiteSpace=wrap;html=1;" parent="1" vertex="1">
          <mxGeometry x="290" y="630" width="160" height="80" as="geometry" />
        </mxCell>
        <mxCell id="yzMuyjXtBNfQkwznEPzL-14" style="edgeStyle=orthogonalEdgeStyle;rounded=0;orthogonalLoop=1;jettySize=auto;html=1;endArrow=none;startFill=0;exitX=0.5;exitY=0.5;exitDx=0;exitDy=0;exitPerimeter=0;entryX=0;entryY=0.5;entryDx=0;entryDy=0;" parent="1" target="yzMuyjXtBNfQkwznEPzL-12" edge="1">
          <mxGeometry relative="1" as="geometry">
            <mxPoint x="60" y="530" as="sourcePoint" />
            <mxPoint x="280" y="580" as="targetPoint" />
            <Array as="points">
              <mxPoint x="60" y="531" />
              <mxPoint x="200" y="531" />
              <mxPoint x="200" y="670" />
            </Array>
          </mxGeometry>
        </mxCell>
        <mxCell id="yzMuyjXtBNfQkwznEPzL-15" style="edgeStyle=orthogonalEdgeStyle;rounded=0;orthogonalLoop=1;jettySize=auto;html=1;entryX=0.5;entryY=0.5;entryDx=0;entryDy=0;entryPerimeter=0;endArrow=none;startFill=0;exitX=1;exitY=0.5;exitDx=0;exitDy=0;" parent="1" source="yzMuyjXtBNfQkwznEPzL-12" edge="1">
          <mxGeometry relative="1" as="geometry">
            <Array as="points">
              <mxPoint x="611" y="670" />
              <mxPoint x="611" y="430" />
            </Array>
            <mxPoint x="460" y="589" as="sourcePoint" />
            <mxPoint x="766" y="430" as="targetPoint" />
          </mxGeometry>
        </mxCell>
        <mxCell id="yzMuyjXtBNfQkwznEPzL-16" value="CU 5: Consulter des tutoriels de l&#39;application mobile" style="ellipse;whiteSpace=wrap;html=1;" parent="1" vertex="1">
          <mxGeometry x="290" y="730" width="160" height="80" as="geometry" />
        </mxCell>
        <mxCell id="yzMuyjXtBNfQkwznEPzL-17" style="edgeStyle=orthogonalEdgeStyle;rounded=0;orthogonalLoop=1;jettySize=auto;html=1;endArrow=none;startFill=0;exitX=0.5;exitY=0.5;exitDx=0;exitDy=0;exitPerimeter=0;" parent="1" target="yzMuyjXtBNfQkwznEPzL-16" edge="1">
          <mxGeometry relative="1" as="geometry">
            <mxPoint x="60" y="530" as="sourcePoint" />
            <mxPoint x="290" y="670" as="targetPoint" />
            <Array as="points">
              <mxPoint x="60" y="531" />
              <mxPoint x="200" y="531" />
              <mxPoint x="200" y="770" />
            </Array>
          </mxGeometry>
        </mxCell>
        <mxCell id="yzMuyjXtBNfQkwznEPzL-18" style="edgeStyle=orthogonalEdgeStyle;rounded=0;orthogonalLoop=1;jettySize=auto;html=1;entryX=0.5;entryY=0.5;entryDx=0;entryDy=0;entryPerimeter=0;endArrow=none;startFill=0;" parent="1" source="yzMuyjXtBNfQkwznEPzL-16" edge="1">
          <mxGeometry relative="1" as="geometry">
            <Array as="points">
              <mxPoint x="611" y="770" />
              <mxPoint x="611" y="430" />
            </Array>
            <mxPoint x="450" y="670" as="sourcePoint" />
            <mxPoint x="766" y="430" as="targetPoint" />
          </mxGeometry>
        </mxCell>
      </root>
    </mxGraphModel>
  </diagram>
</mxfile>
